<svg width="256" height="256" viewBox="0 0 256 256" fill="none" xmlns="http://www.w3.org/2000/svg">
  <defs>
    <linearGradient id="bg" x1="26" y1="18" x2="228" y2="232" gradientUnits="userSpaceOnUse">
      <stop stop-color="#163252"/>
      <stop offset="0.56" stop-color="#1C5EA5"/>
      <stop offset="1" stop-color="#0F86E8"/>
    </linearGradient>
    <linearGradient id="page" x1="74" y1="48" x2="190" y2="214" gradientUnits="userSpaceOnUse">
      <stop stop-color="#FFFFFF"/>
      <stop offset="1" stop-color="#EAF2FB"/>
    </linearGradient>
    <linearGradient id="header" x1="72" y1="56" x2="194" y2="84" gradientUnits="userSpaceOnUse">
      <stop stop-color="#F2F7FD"/>
      <stop offset="1" stop-color="#DDEAF8"/>
    </linearGradient>
    <linearGradient id="fold" x1="160" y1="50" x2="202" y2="88" gradientUnits="userSpaceOnUse">
      <stop stop-color="#EEF5FD"/>
      <stop offset="1" stop-color="#C6DCF5"/>
    </linearGradient>
    <linearGradient id="stroke" x1="92" y1="184" x2="178" y2="102" gradientUnits="userSpaceOnUse">
      <stop stop-color="#0E74CD"/>
      <stop offset="1" stop-color="#0A58A9"/>
    </linearGradient>
    <filter id="shadow" x="42" y="34" width="174" height="190" filterUnits="userSpaceOnUse" color-interpolation-filters="sRGB">
      <feDropShadow dx="0" dy="12" stdDeviation="10" flood-color="#0B1A2C" flood-opacity="0.24"/>
    </filter>
  </defs>

  <rect x="16" y="16" width="224" height="224" rx="52" fill="url(#bg)"/>
  <path d="M32 54L54 32H120L32 120V54Z" fill="#69B4FF" fill-opacity="0.26"/>
  <path d="M203 224L224 203V136L136 224H203Z" fill="#0A4B89" fill-opacity="0.28"/>

  <g filter="url(#shadow)">
    <path d="M72 46H154L196 88V182C196 196.359 184.359 208 170 208H86C71.6406 208 60 196.359 60 182V58C60 51.3726 65.3726 46 72 46Z" fill="url(#page)"/>
    <path d="M72 58H154L184 88H72V58Z" fill="url(#header)"/>
    <path d="M154 46V76C154 82.6274 159.373 88 166 88H196L154 46Z" fill="url(#fold)"/>
  </g>

  <rect x="82" y="64" width="12" height="14" rx="4" fill="#86B9E9"/>
  <rect x="104" y="64" width="12" height="14" rx="4" fill="#86B9E9"/>
  <rect x="126" y="64" width="12" height="14" rx="4" fill="#86B9E9"/>

  <rect x="82" y="102" width="92" height="9" rx="4.5" fill="#CBDBED"/>
  <rect x="82" y="122" width="92" height="9" rx="4.5" fill="#D8E5F2"/>
  <rect x="82" y="142" width="76" height="9" rx="4.5" fill="#D8E5F2"/>

  <path d="M86 182C101 176 112 165 122 150C129 139 137 131 148 124C157 118 165 110 174 100" stroke="url(#stroke)" stroke-width="17" stroke-linecap="round" stroke-linejoin="round"/>
  <path d="M160 100H178L170 118" stroke="#153A63" stroke-width="10" stroke-linecap="round" stroke-linejoin="round"/>
</svg>